<svg xmlns="http://www.w3.org/2000/svg" xmlns:xlink="http://www.w3.org/1999/xlink" viewBox="0 0 634.93 535.37"><defs><style>.cls-1{fill:url(#linear-gradient);}.cls-2{fill:#9be2d6;}.cls-3{fill:#212121;}.cls-4{fill:#d1d3d4;}.cls-5{fill:#90c9f8;}.cls-6{fill:url(#linear-gradient-2);}.cls-7{fill:#f1f1f2;}.cls-8{fill:url(#linear-gradient-3);}.cls-9{fill:none;stroke:#000;stroke-miterlimit:10;}</style><linearGradient id="linear-gradient" x1="319.88" y1="268.3" x2="633.47" y2="268.3" gradientUnits="userSpaceOnUse"><stop offset="0.06" stop-color="#9be2d6"/><stop offset="0.43" stop-color="#90c9f8"/><stop offset="0.97" stop-color="#90c9f8"/></linearGradient><linearGradient id="linear-gradient-2" x1="160.25" y1="270.33" x2="160.25" y2="-47.22" gradientUnits="userSpaceOnUse"><stop offset="0.23" stop-color="#90c9f8"/><stop offset="0.45" stop-color="#9be2d6"/><stop offset="0.74" stop-color="#9be2d6"/><stop offset="0.97" stop-color="#90c9f8"/></linearGradient><linearGradient id="linear-gradient-3" x1="4.15" y1="106.16" x2="217" y2="106.16" xlink:href="#linear-gradient"/></defs><title>ratefox</title><g id="Layer_2" data-name="Layer 2"><g id="Layer_2-2" data-name="Layer 2"><path class="cls-1" d="M345.71,323.86l-.8.08-10,.94,110.3-121.42L627.87,2.4,537.05,228.54l-31.94,16.51,128.36-20.42L319.91,534.2l0-1.34v0L451.06,314.08Zm91.63-33.74,39-91.62-92.45,103,69.59-6.24Z"/><polygon class="cls-2" points="627.92 2.26 627.87 2.4 445.21 203.46 444.97 203.25 416.11 84.83 627.92 2.26"/><polygon class="cls-3" points="476.35 198.5 437.34 290.12 453.5 295.3 383.9 301.54 476.35 198.5"/><polygon class="cls-4" points="451.06 314.08 319.88 532.83 319.02 466.45 319.02 371.64 319.02 371.62 345.71 323.86 451.06 314.08"/><polygon class="cls-5" points="445.21 203.46 334.91 324.88 318.08 326.44 318.06 326.44 317.23 326.38 316.34 51.84 414.58 85.42 416.11 84.83 444.97 203.25 445.21 203.46"/><polygon class="cls-3" points="319.02 344.1 319.02 326.51 318.08 326.44 334.91 324.88 344.91 323.94 345.71 323.86 319.02 371.62 319.02 344.1"/><polygon class="cls-3" points="319.02 371.62 319.02 371.64 318.41 372.74 317.79 371.67 317.44 344.1 317.23 327.45 317.23 326.51 318.06 326.44 318.08 326.44 319.02 326.51 319.02 344.1 319.02 371.62"/><path class="cls-6" d="M319,532.86v1.34L1.47,228.7,130.1,247.46,97.94,231.38,4.23,6.47,190.29,206l111,119.07-10-.81h0L185,315.8l134,217ZM252,302.4,158.24,200.57l40.19,91.11L182.35,297Z"/><polygon class="cls-7" points="319.02 466.45 319.02 532.83 185.03 315.8 291.29 324.29 291.31 324.29 317.79 371.67 319.02 466.45"/><polygon class="cls-3" points="318.41 372.74 319.02 371.64 319.02 466.45 317.79 371.67 318.41 372.74"/><polygon class="cls-3" points="317.44 344.1 317.79 371.67 291.31 324.29 301.31 325.1 317.23 326.38 317.23 326.51 317.23 327.45 317.44 344.1"/><polygon class="cls-2" points="316.34 51.84 317.23 326.38 301.31 325.1 190.29 206.03 190.39 205.93 217 86.11 217.03 86.11 218.53 86.67 316.34 51.84"/><polygon class="cls-3" points="158.24 200.57 252.03 302.4 182.35 297.04 198.43 291.68 158.24 200.57"/><polygon class="cls-8" points="217 86.11 190.39 205.93 190.29 206.03 4.23 6.47 4.15 6.28 217 86.11"/><polyline class="cls-9" points="4.23 6.47 4.15 6.28 217 86.11 217.03 86.11 218.53 86.67 316.34 51.84"/><polyline class="cls-9" points="301.31 325.1 317.23 326.38 318.06 326.44"/><polyline class="cls-9" points="319.02 371.64 319.02 466.45 319.02 532.83"/><polyline class="cls-9" points="318.08 326.44 319.02 326.51 319.02 344.1 319.02 371.62"/><line class="cls-9" x1="319.08" y1="344.15" x2="319.02" y2="344.09"/><line class="cls-9" x1="4.23" y1="6.47" x2="2.81" y2="4.94"/><line class="cls-9" x1="217" y1="86.11" x2="190.39" y2="205.93"/><line class="cls-9" x1="217.19" y1="85.34" x2="217.03" y2="86.11"/><polyline class="cls-9" points="318.41 372.77 318.41 372.74 317.79 371.67 291.31 324.29"/><polygon class="cls-9" points="319.02 532.83 185.03 315.8 291.29 324.29 291.31 324.29 301.31 325.1 190.29 206.03 4.23 6.47 97.94 231.38 130.1 247.46 1.47 228.7 319.02 534.2 319.02 532.86 319.02 532.83"/><polygon class="cls-9" points="158.24 200.57 252.03 302.4 182.35 297.04 198.43 291.68 158.24 200.57"/><polyline class="cls-9" points="317.23 326.51 317.23 326.38 316.34 51.84 414.58 85.42 416.11 84.83 627.92 2.26 627.87 2.4"/><line class="cls-9" x1="317.23" y1="326.52" x2="317.2" y2="326.52"/><polyline class="cls-9" points="319.88 532.83 319.02 466.45 317.79 371.67 317.44 344.1 317.23 327.45 317.23 326.51 318.06 326.44 318.08 326.44 334.91 324.88"/><line class="cls-9" x1="317.44" y1="344.09" x2="317.39" y2="344.15"/><line class="cls-9" x1="629.23" y1="0.9" x2="627.87" y2="2.4"/><polyline class="cls-9" points="415.92 84.05 416.11 84.83 444.97 203.25"/><polyline class="cls-9" points="345.98 323.41 345.71 323.86 319.02 371.62 319.02 371.64 318.41 372.74"/><polygon class="cls-9" points="319.88 532.83 319.88 532.86 319.91 534.2 633.47 224.63 505.11 245.05 537.05 228.54 627.87 2.4 445.21 203.46 334.91 324.88 344.91 323.94 345.71 323.86 451.06 314.08 319.88 532.83"/><polygon class="cls-9" points="437.34 290.12 453.5 295.3 383.9 301.54 476.35 198.5 437.34 290.12"/></g></g></svg>